<svg xmlns="http://www.w3.org/2000/svg" viewBox="0 0 46.47 42.04"><defs><style>.cls-1{fill:#009bc0;}.cls-2{fill:#132230;}</style></defs><title>Alluvium_logo</title><g id="Layer_2" data-name="Layer 2"><g id="Layer_1-2" data-name="Layer 1"><path class="cls-1" d="M0,36.14a5.54,5.54,0,0,1,.85-3c3-5.15,5.93-10.3,8.92-15.46a5.65,5.65,0,0,1,10.09,0c3,5.14,6,10.29,8.92,15.46a5.69,5.69,0,0,1-3.13,8.46A2.73,2.73,0,0,1,23,41.17c-2.44-1.91-5-3.72-7.41-5.61a1,1,0,0,0-1.51,0c-2.46,1.89-5,3.7-7.41,5.62a2.7,2.7,0,0,1-2.57.49A5.61,5.61,0,0,1,0,36.14Z"/><path class="cls-2" d="M23,.09c2.72-.45,4,1.49,5.15,3.49,3.44,5.92,6.94,11.84,10.27,17.81,2.41,4.32,5,8.54,7.38,12.88a5.18,5.18,0,0,1-2.5,7.39,5.6,5.6,0,0,1-6.75-2.32c-3.6-6.25-7.29-12.47-10.86-18.75-2.5-4.42-5.08-8.78-7.56-13.2C16.18,3.94,19.29-.72,23,.09Z"/></g></g></svg>